<svg id="Layer_1" data-name="Layer 1" xmlns="http://www.w3.org/2000/svg" viewBox="0 0 27 22"><title>twitter</title><path d="M17.93.31h1.23l.45.09a4.82,4.82,0,0,1,.82.23,5.82,5.82,0,0,1,.71.33,6.77,6.77,0,0,1,.62.39,3.84,3.84,0,0,1,.5.41.69.69,0,0,0,.68.11,9.11,9.11,0,0,0,1-.3q.53-.19,1.06-.43l.64-.3.12-.07h.17V.91l0,.09a4,4,0,0,1-.23.47,5.94,5.94,0,0,1-.53.84A4.14,4.14,0,0,1,24.5,3l-.34.31a1,1,0,0,1-.2.17l-.12.08h0l.66-.14a11.89,11.89,0,0,0,1.27-.34l.64-.21.07,0h.23v0h-.08V3h0l-.3.4a3.34,3.34,0,0,1-.32.4s0,0-.07.07a6.8,6.8,0,0,1-.5.53,12,12,0,0,1-.91.82,1.12,1.12,0,0,0-.45.89q0,.53-.05,1.19t-.18,1.44a17.12,17.12,0,0,1-.4,1.74,15.86,15.86,0,0,1-.66,1.9,14.79,14.79,0,0,1-.82,1.66q-.43.74-.78,1.25t-.72,1q-.37.45-.93,1l-.62.62-.47.39q-.41.34-.88.68a10.16,10.16,0,0,1-.86.56l-.94.52a11.24,11.24,0,0,1-1.19.54q-.64.25-1.35.46a12.36,12.36,0,0,1-1.38.33q-.66.12-1.51.2l-.84.08H7.66l-.33,0-1-.13Q5.49,21.4,5,21.28t-1.45-.45a14.09,14.09,0,0,1-1.64-.67l-.85-.43-.38-.22-.21-.13H.34v0H.49l.58,0q.47,0,1,0a10.61,10.61,0,0,0,1.09-.11,12.3,12.3,0,0,0,1.32-.28,9.73,9.73,0,0,0,1.4-.48l.9-.42a8.78,8.78,0,0,0,.81-.5l.55-.37h.09v0H8.08l-.37,0a3.57,3.57,0,0,1-.56-.11,5.35,5.35,0,0,1-.82-.28,6.31,6.31,0,0,1-.85-.45,4.21,4.21,0,0,1-.6-.43q-.18-.17-.47-.48a4.8,4.8,0,0,1-.5-.65,5.82,5.82,0,0,1-.41-.77l-.2-.43v-.12h.07l.26,0a5.8,5.8,0,0,0,.82,0,6.34,6.34,0,0,0,.77,0l.26,0h0l-.17,0-.64-.26a4.9,4.9,0,0,1-.83-.44,5.74,5.74,0,0,1-.59-.47,6.72,6.72,0,0,1-.61-.66A4.75,4.75,0,0,1,2,10.31a5.7,5.7,0,0,1-.39-1,5.51,5.51,0,0,1-.17-1l0-.5H1.5L1.87,8a4.64,4.64,0,0,0,.91.28l.65.13h.15l-.2-.15A3.11,3.11,0,0,1,3,7.8l-.43-.5a3.85,3.85,0,0,1-.38-.56A6.76,6.76,0,0,1,1.82,6a5.36,5.36,0,0,1-.28-.92,5.23,5.23,0,0,1-.11-.91,5.75,5.75,0,0,1,0-.77,5,5,0,0,1,.14-.72,5.64,5.64,0,0,1,.31-.85l.2-.45V1.28H2.2v0h0l.32.36q.32.36.76.8A4.46,4.46,0,0,0,3.8,3a.35.35,0,0,1,.12.11,4.85,4.85,0,0,0,.47.42q.4.33,1.06.77t1.45.87a14.13,14.13,0,0,0,1.71.77q.91.34,1.28.45t1.26.27q.89.17,1.34.21l.62.05h.17V6.83l0-.3a5.58,5.58,0,0,1,0-.83,5.45,5.45,0,0,1,.08-1,5.83,5.83,0,0,1,.25-.91,4.88,4.88,0,0,1,.33-.74,7.31,7.31,0,0,1,.42-.63,5.12,5.12,0,0,1,.68-.74A5,5,0,0,1,15.87,1a6.17,6.17,0,0,1,1-.45,4.59,4.59,0,0,1,.76-.2Z"/></svg>