<svg data-name="Layer 1" xmlns="http://www.w3.org/2000/svg" viewBox="0 0 125 15"><title>handmade</title><path d="M9.29 6.56a.15.15 0 0 1 0 .11.41.41 0 0 1 0 .14.68.68 0 0 1-.1.15 1 1 0 0 1-.19.15h-.07H9l-.09.05-.19.11-.36.21h-.11L8 7.71l-.31.17-.36.19-.4.2-.29.12-.32.13-.32.14-.34.16-.31.18-.26.12a.7.7 0 0 1-.2 0 .11.11 0 0 1-.11-.06.3.3 0 0 1 0-.19 2 2 0 0 1 .16-.37v-.06l.14-.39.14-.4v-.14l.14-.41.15-.44.05-.16.07-.2-.39.3-.43.31-.54.35-.58.33-.42.23-.39.18H2.7l-.22.11-.23.11v.25l-.07.12A.56.56 0 0 1 2 8.9h-.06l-.12.1h-.41l-.05-.07a.26.26 0 0 1 0-.23.45.45 0 0 1 .06-.12l.08-.09.21-.15.22-.12q.12-.38.23-.76l.19-.7q.15-.63.27-1.18l.2-.94.07-.64.11-.4v-.36L3.09 3v-.14a.89.89 0 0 1 .06-.2.74.74 0 0 1 .09-.16.38.38 0 0 1 .11-.1.16.16 0 0 1 .11 0 .22.22 0 0 1 .14.11.48.48 0 0 1 .05.24 1.19 1.19 0 0 1 0 .12.8.8 0 0 1 0 .12v.58l-.07.29-.09.38v.2l-.09.38-.11.46-.29.44-.13.54-.18.74q-.1.39-.24.82l.26-.13.29-.15.42-.21.38-.21q.36-.2.66-.4t.54-.4q.33-.25.57-.46A5.51 5.51 0 0 0 6 5.43v-.2L6.13 5v-.08l.24-.7.27-.73.16-.4.2-.41.05-.11.05-.11v-.12h.31v.38a.6.6 0 0 1 0 .08v.05a4.89 4.89 0 0 1-.13.59q-.08.27-.16.49a4.09 4.09 0 0 1-.19.4l-.2.35a5.61 5.61 0 0 1-.36.49l-.38.44v.13l-.17.48.18.54-.16.46-.17.5v.74l.55-.23.21-.23.76-.39.53-.31.35-.22.25-.17.1-.07.09-.07h.1l.18-.1L9 6.5a.34.34 0 0 1 .14 0 .17.17 0 0 1 .15.06zm-7.59 2l-.1.13z" fill="#c2b59b" stroke="#c2b59b" stroke-linecap="round" stroke-linejoin="round" stroke-width=".36"/><path d="M8.85 6.53a.35.35 0 0 1 .22-.08h.11a.29.29 0 0 1 .1.07.25.25 0 0 1 0 .21.38.38 0 0 1-.08.27h-.12L9 7.14l-.19.17-.27.27-.16.19-.23.23-.15.22a1.82 1.82 0 0 0-.14.3l.2-.11.22-.14.54-.36L9 7.8v-.06h.34l.12.06.42.2.52.26.23.09.25.09.28.07.36.05H12l.29-.07a2.07 2.07 0 0 0 .32-.12 5.44 5.44 0 0 0 .65-.37l.5-.34.4-.3.29-.25.28-.27.18-.18a.38.38 0 0 1 .11-.08h.3a.23.23 0 0 1 .08.19.32.32 0 0 1 0 .13.41.41 0 0 1-.09.12l-.06.06-.11.1-.19.15-.3.24-.42.31-.27.18-.34.21-.39.22-.42.21a2.87 2.87 0 0 1-.44.16 2.53 2.53 0 0 1-.4.08h-.67l-.44-.07-.37-.09-.3-.1-.32-.12-.18-.08-.19-.1-.1-.05-.1-.06-.54.32-.44.24-.2.09-.29.08h-.31a.26.26 0 0 1-.09-.08.24.24 0 0 1 0-.11.37.37 0 0 1 0-.1v-.28a1.89 1.89 0 0 1 .15-.37l.16-.28.16-.23.15-.18.22-.27.17-.19v-.05l.15-.15zm-1.11 2zm.08.07z" fill="#c2b59b" stroke="#c2b59b" stroke-linecap="round" stroke-linejoin="round" stroke-width=".36"/><path d="M25 6.58a.44.44 0 0 1 .13-.07h.13a.24.24 0 0 1 .2.1.21.21 0 0 1 0 .1.3.3 0 0 1 0 .12.48.48 0 0 1-.06.12.49.49 0 0 1-.09.1l-.13.07-.17.11h-.06l-.28.18-.39.24-.31.18-.37.2-.44.21q-.25.11-.53.21l-.32.1-.36.1-.39.07h-.42a3 3 0 0 1-.46 0 2.69 2.69 0 0 1-.49-.11 3 3 0 0 1-.5-.22 2.65 2.65 0 0 1-.46-.33 3 3 0 0 1-.42-.46q-.16-.22-.27-.41l-.08-.14-.14-.05-.32.17-.42.23-.44.27-.56.33h-.1l-.17.11-.18.11-.48.27a4.53 4.53 0 0 1-.45.23l-.2.18-.28.1h-.65a.36.36 0 0 1-.09-.1.31.31 0 0 1 0-.09v-.27a.76.76 0 0 1 0-.13v-.1a2.46 2.46 0 0 1 .15-.31l.14-.26.12-.22.34-.58.15-.24a.47.47 0 0 1 .1-.11l.12-.07h.22a.19.19 0 0 1 .08.09.33.33 0 0 1 0 .13.4.4 0 0 1-.08.25v.1l-.12.16-.2.31-.09.13-.21.31-.15.27-.07.14-.06.15h.41l.24-.09.27-.13.28-.15.27-.15.28-.17.26-.16.09-.06.09-.06h.14l.38-.23.33-.19.28-.16.25-.14.12-.06h.12l.27.15v.07q.1.17.2.33l.25.34.15.17.19.19.23.19a2.53 2.53 0 0 0 .72.36l.37.08h.62l.51-.1.53-.15a6.45 6.45 0 0 0 .79-.36l.56-.32.4-.27.27-.2.19-.15.14-.11.08-.06z" fill="#c2b59b" stroke="#c2b59b" stroke-linecap="round" stroke-linejoin="round" stroke-width=".36"/><path d="M32.11 6.59a.17.17 0 0 1 0 .11.36.36 0 0 1-.07.13.76.76 0 0 1-.13.13.82.82 0 0 1-.18.11h-.23l-.16.07-.23.1-.16.07-.19.08-.15.07-.16.07-.45.27-.37.2h-.12l-.12.05-.15.06-.4.17-.45.19-.39.17-.41.15h-.14l-.19.06h-.46a.26.26 0 0 1-.09-.08.3.3 0 0 1 0-.09.54.54 0 0 1 0-.15 1.29 1.29 0 0 1 0-.14v.02a5.44 5.44 0 0 1 .1-.58l.15-.63v-.21q-.29.35-.55.64t-.52.53c-.17.15-.33.29-.5.42a2.71 2.71 0 0 1-.54.32l-.17.1h-.35a.54.54 0 0 1-.19-.07L24 8.88v-.09a.48.48 0 0 1-.08-.21.64.64 0 0 1 0-.17.93.93 0 0 1 0-.15A2.34 2.34 0 0 1 24 8l.08-.17.09-.16.09-.14.16-.23.14-.18.19-.24.12-.14a1 1 0 0 1 .13-.11l.16-.09h.14a.17.17 0 0 1 .11 0 .17.17 0 0 1 0 .11.39.39 0 0 1 0 .14.72.72 0 0 1-.07.16 1 1 0 0 1-.11.16v.05l-.23.31-.12.15-.14.2-.14.21-.08.14a1.34 1.34 0 0 0-.07.16v.06a.24.24 0 0 0 0 .06h.08a.54.54 0 0 0 .25-.06l.24-.14.27-.19.27-.23.29-.27.3-.3.2-.26.44-.52.46-.59q.22-.71.49-1.51t.61-1.64q.21-.52.4-.92t.38-.74V1l.08-.14.09-.12.07-.09.05-.06.07-.06h.38l.13.09a.71.71 0 0 1 .11.21 1 1 0 0 1 0 .21 1.41 1.41 0 0 1 0 .19 1.82 1.82 0 0 1 0 .18 2.86 2.86 0 0 1-.08.36c0 .13-.08.25-.13.38l-.17.41q-.1.23-.21.46l-.27.52c-.1.18-.21.38-.34.59l-.42.68q-.23.36-.52.77l-.06.09-.14.2-.14.2v.49a.51.51 0 0 1 0 .1l-.14.47q-.06.22-.12.45l-.05.23v.45a1.7 1.7 0 0 0 0 .23h.17l.19-.06.35-.12.32-.13.58-.24.5-.22.78-.36.54-.26.36-.18.25-.12.21-.1.21-.1.19-.07h.18a.25.25 0 0 1 .24.11zM28.4 4l-.07.17v.28q.39-.61.68-1.15t.48-.95q.1-.24.18-.49a4.43 4.43 0 0 0 .13-.47 1.49 1.49 0 0 0 0-.38V.93v.06l-.15.26-.16.32-.16.35q-.16.35-.37.87z" fill="#c2b59b" stroke="#c2b59b" stroke-linecap="round" stroke-linejoin="round" stroke-width=".36"/><path d="M44.25 6.57a.25.25 0 0 1 0 .23.52.52 0 0 1-.25.2h-.06l-.12.06-.22.11-.37.19-.53.27-.41.2-.48.22-.58.25q-.32.13-.66.23l-.23.05h-.5l-.27-.08a1.54 1.54 0 0 1-.46-.33 2.1 2.1 0 0 1-.34-.46 2.14 2.14 0 0 1-.1-.21l-.1-.25-.46.37-.49.35q-.37.25-.66.4a4.53 4.53 0 0 1-.54.24l-.42.26h-.83a.89.89 0 0 1-.28-.18 1.25 1.25 0 0 1-.23-.28 1.63 1.63 0 0 1-.15-.33 2.62 2.62 0 0 1-.09-.38v-.61l-.15.09-.15.1-.09.06-.09.06h-.05l-1.13.68q-.52.3-1 .52l-.23.1-.25.09h-.56l-.09-.06-.06-.08v.06a.17.17 0 0 1 0-.05.54.54 0 0 1 0-.15l.06-.17.05-.13v-.4l.25-.45.35-.36.07-.11.05-.09v-.06a.6.6 0 0 1 .23-.21.25.25 0 0 1 .24 0 .2.2 0 0 1 .13.07.3.3 0 0 1 0 .12.52.52 0 0 1 0 .14.75.75 0 0 1-.07.16v.06l-.14.21-.23.36q-.13.22-.29.52v.12a5.1 5.1 0 0 0 .5-.21l.55-.29.64-.35.72-.41.03-.03h.11l.16-.1.16-.1h.25l.07-.07.25.13v.12a.58.58 0 0 0 0 .07v.07a3.52 3.52 0 0 0 0 .54 3.11 3.11 0 0 0 .09.44 1.28 1.28 0 0 0 .14.32.63.63 0 0 0 .19.2l.12.05h.32l.25-.07.21-.08.23-.11.23-.13q.25-.13.57-.35t.72-.51l.22-.28.16-.14.17-.14.07-.07h.2v.07c.06 0 .1.08.1.13a.16.16 0 0 1 0 .12v.2a2.76 2.76 0 0 0 .18.39 1.6 1.6 0 0 0 .2.29.86.86 0 0 0 .48.29h.41l.21-.05a5.66 5.66 0 0 0 .56-.2l.46-.2.41-.2.35-.18q.62-.33.91-.51l.18-.11.13-.09h.11l.1-.06.1-.05.15-.07h.15a.27.27 0 0 1 .23.12zm-5.49.55z" fill="#c2b59b" stroke="#c2b59b" stroke-linecap="round" stroke-linejoin="round" stroke-width=".36"/><path d="M43.76 6.53a.35.35 0 0 1 .24-.08h.11a.29.29 0 0 1 .1.07.25.25 0 0 1 0 .21.38.38 0 0 1-.13.21h-.05L44 7l-.13.1-.19.17-.27.27-.16.19-.18.27-.15.24a1.82 1.82 0 0 0-.14.3L43 8.4l.22-.14.54-.36.12-.09.12-.07h.34l.12.06.28.14.52.26.23.09.25.09.28.07.36.05h.48l.29-.07a2.07 2.07 0 0 0 .32-.12 5.44 5.44 0 0 0 .71-.31l.5-.34.4-.3.29-.25.28-.27.18-.18a.38.38 0 0 1 .17-.12h.3a.23.23 0 0 1 .08.19.32.32 0 0 1 0 .13.41.41 0 0 1-.09.12l-.06.06-.23.16-.19.15-.3.24-.42.31-.27.18-.34.21-.39.22-.42.21a2.87 2.87 0 0 1-.44.16 2.53 2.53 0 0 1-.4.08h-.64l-.44-.07-.37-.09-.3-.1-.32-.12-.18-.08-.19-.1-.1-.05-.1-.06-.54.32-.44.24-.2.09-.26.06h-.31a.26.26 0 0 1-.09-.08.24.24 0 0 1 0-.11.37.37 0 0 1 0-.1v-.28a1.89 1.89 0 0 1 .15-.37l.16-.28.16-.23.18-.17.22-.27.17-.19v-.05l.15-.15zm-1.11 2zm.08.07z" fill="#c2b59b" stroke="#c2b59b" stroke-linecap="round" stroke-linejoin="round" stroke-width=".36"/><path d="M57 6.59a.17.17 0 0 1 0 .11.36.36 0 0 1-.07.13.76.76 0 0 1-.13.13.82.82 0 0 1-.18.11h-.23l-.16.07-.23.1-.16.07-.19.08-.15.07-.16.07-.35.15-.52.32h-.12l-.12.05-.15.06-.4.17-.45.19-.38.15-.41.15h-.14l-.19.06h-.46a.26.26 0 0 1-.09-.08.3.3 0 0 1 0-.09.54.54 0 0 1 0-.15 1.29 1.29 0 0 1 0-.14v.04a5.44 5.44 0 0 1 .1-.58l.15-.63v-.21q-.29.35-.55.64t-.52.53c-.17.15-.33.29-.5.42a2.71 2.71 0 0 1-.54.32l-.18.1h-.35a.54.54 0 0 1-.17-.06l-.1-.06-.09-.09a.48.48 0 0 1-.08-.21.64.64 0 0 1 0-.17.93.93 0 0 1 0-.15 2.34 2.34 0 0 1 .09-.26l.08-.17.1-.13.09-.14.16-.23.14-.18.19-.24.12-.14a1 1 0 0 1 .15-.14l.15-.09h.14a.17.17 0 0 1 .11 0 .17.17 0 0 1 0 .11.39.39 0 0 1 0 .14.72.72 0 0 1-.07.16 1 1 0 0 1-.11.16v.05l-.09.11-.12.15-.14.2-.14.21-.08.14a1.34 1.34 0 0 0-.07.16v.06a.24.24 0 0 0 0 .06h.08a.54.54 0 0 0 .25-.06l.24-.14v.08l.27-.23.29-.27.3-.3.34-.33.44-.52.46-.59q.22-.71.49-1.51t.61-1.64q.21-.52.4-.92t.4-.75V1l.08-.14.09-.12.07-.09.05-.06.07-.06h.38l.07.07a.71.71 0 0 1 .11.21A1 1 0 0 1 55 1a1.41 1.41 0 0 1 0 .19 1.82 1.82 0 0 1 0 .18 2.86 2.86 0 0 1-.08.36c0 .13-.08.25-.13.38l-.17.41q-.1.23-.21.46l-.27.52c-.1.18-.21.38-.34.59l-.42.68q-.23.36-.52.77l-.06.09-.14.2-.14.2v.49a.51.51 0 0 1 0 .1l-.14.47q-.06.22-.12.45l-.26.27v.41a1.7 1.7 0 0 0 0 .23h.17l.19-.06.35-.12.32-.13.58-.24.5-.22.78-.36.54-.26.36-.18.25-.12.21-.1.21-.1.19-.07h.18a.25.25 0 0 1 .24.11zM53.24 4l-.07.17v.28q.39-.61.68-1.15t.48-.95q.1-.24.18-.49a4.43 4.43 0 0 0 .13-.47 1.49 1.49 0 0 0 0-.38V.93v.06l-.15.26-.16.32-.16.35q-.16.35-.37.87z" fill="#c2b59b" stroke="#c2b59b" stroke-linecap="round" stroke-linejoin="round" stroke-width=".36"/><path d="M56.24 6.54h.29a.29.29 0 0 1 .23 0 .27.27 0 0 1 .12.18.28.28 0 0 1-.06.2.34.34 0 0 1-.17.12h-.32l-.17.06a1 1 0 0 0-.22.12l-.12.1a.43.43 0 0 0-.09.15v.06a.32.32 0 0 0 0 .06.67.67 0 0 0 0 .17.88.88 0 0 0 .07.18.53.53 0 0 0 .22.23l.19.11.21.08a3.84 3.84 0 0 0 1.1.16h1.28l.29-.07.42-.14c.16-.06.34-.13.55-.23l.56-.3.45-.28.36-.25.26-.19.29-.23.15-.12a.33.33 0 0 1 .2-.07h.12a.26.26 0 0 1 .09.07.28.28 0 0 1 .06.17.29.29 0 0 1 0 .13.3.3 0 0 1-.09.11h-.06l-.11.07h-.23l-.22.13-.27.17L61 8q-.3.17-.71.35t-.67.27l-.49.16-.38.1-.3.08h-.26L57.9 9h-.84a3.2 3.2 0 0 1-.59-.14 3.71 3.71 0 0 1-.47-.2l-.17-.1-.16-.12-.15-.15a.86.86 0 0 1-.12-.2 1.39 1.39 0 0 1-.1-.27 1 1 0 0 1 0-.26.84.84 0 0 1 0-.16.77.77 0 0 1 .11-.28 1.2 1.2 0 0 1 .16-.2 1.58 1.58 0 0 1 .28-.21l.22-.12zm19.99-.02a.33.33 0 0 1 .2-.07.27.27 0 0 1 .21.1.25.25 0 0 1 .05.16.3.3 0 0 1 0 .13.31.31 0 0 1-.09.11l-.12.07-.23.15-.37.24-.55.32-.42.21-.53.23-.62.23c-.22.07-.47.14-.73.2a7.48 7.48 0 0 1-1.03.3 6.86 6.86 0 0 1-.71 0 4.65 4.65 0 0 1-.66 0 2.41 2.41 0 0 1-.57-.15 1.47 1.47 0 0 1-.28-.14 1.07 1.07 0 0 1-.22-.2.68.68 0 0 1-.14-.27.61.61 0 0 1 0-.15 1 1 0 0 1 0-.14 1.8 1.8 0 0 1 .07-.42 1.83 1.83 0 0 1 .14-.35 2 2 0 0 1 .18-.27l.18-.2.16-.12.17-.11.17-.09h.38a.28.28 0 0 1 .13.17.27.27 0 0 1 0 .2.32.32 0 0 1-.17.13h-.34l-.16.21a.84.84 0 0 0-.14.13 1.26 1.26 0 0 0-.28.47 1.83 1.83 0 0 0-.06.37.3.3 0 0 0 0 .14.38.38 0 0 0 .11.13.88.88 0 0 0 .2.13l.25.09.3.07h.6a5.22 5.22 0 0 0 .65 0 6.82 6.82 0 0 0 .7-.12q.34-.08.64-.18l.6-.23.46-.2.4-.2q.34-.19.58-.35L75.7 7l.23-.19.15-.13.06-.06z" fill="#c2b59b" stroke="#c2b59b" stroke-linecap="round" stroke-linejoin="round" stroke-width=".36"/><path d="M81.93 6.49a.32.32 0 0 1 .23 0 .27.27 0 0 1 .16.14.27.27 0 0 1 0 .21.3.3 0 0 1-.16.16h-.29l-.23.08-.33.11-.48.15-.65.18h-.21l-.35.09-.39.09-.59.09A4.71 4.71 0 0 1 78 8h-.82l-.17.2-.2.21-.18.16-.23.16a1.28 1.28 0 0 1-.32.15h-.34a.39.39 0 0 1-.15 0 .55.55 0 0 1-.22-.18.83.83 0 0 1-.11-.24 1 1 0 0 1 0-.2v-.65a1.5 1.5 0 0 1 0-.15 1.52 1.52 0 0 1 .1-.27 1.57 1.57 0 0 1 .05-.19l.16-.17.15-.12a1.46 1.46 0 0 1 .28-.13l.2-.08h.2a.29.29 0 0 1 .13 0l.11.05a.28.28 0 0 1 .08.09.23.23 0 0 1 0 .11.28.28 0 0 1-.07.19.31.31 0 0 1-.18.1h-.39l-.1.05-.11.08-.11.11a.7.7 0 0 0-.1.17.91.91 0 0 0-.08.23 2.87 2.87 0 0 0 0 .29 1.06 1.06 0 0 0 0 .15.83.83 0 0 0 0 .16.44.44 0 0 0 0 .12.16.16 0 0 0 .07.08h.24l.11-.02.12-.07.19-.15.17-.17.15-.17a.45.45 0 0 0 .08-.12l.08-.15a.49.49 0 0 1 .12-.15.41.41 0 0 1 .19-.08.57.57 0 0 1 .29 0h1.56l.43-.06.36-.07.34-.08.26-.08.26-.09.27-.02.19-.07.25-.1.18-.09.12-.06h.24z" fill="#c2b59b" stroke="#c2b59b" stroke-linecap="round" stroke-linejoin="round" stroke-width=".36"/><path d="M91.91 6.58l.09-.07h.13a.24.24 0 0 1 .2.1.21.21 0 0 1 0 .1.29.29 0 0 1 0 .12.47.47 0 0 1-.06.12.5.5 0 0 1-.09.1l-.18.11-.17.11h-.06l-.28.18-.39.24-.31.18-.37.2-.42.26q-.25.11-.53.21l-.32.1-.36.1-.39.07h-.42a3 3 0 0 1-.46 0 2.7 2.7 0 0 1-.52-.12 3 3 0 0 1-.5-.22 2.63 2.63 0 0 1-.5-.33 3 3 0 0 1-.42-.46q-.16-.22-.27-.41l-.08-.14-.01-.13-.34.17-.42.23-.46.28-.52.32h-.05l-.17.11-.26.19-.48.27a4.53 4.53 0 0 1-.45.23l-.24.09-.21.11h-.69a.35.35 0 0 1-.09-.1.32.32 0 0 1 0-.09v-.27a.76.76 0 0 1 0-.13v-.1A2.46 2.46 0 0 1 81 8l.14-.26.12-.22.34-.58.15-.24a.49.49 0 0 1 .1-.11L82 6.5h.22a.19.19 0 0 1 .08.09.32.32 0 0 1 0 .13.44.44 0 0 1 0 .12.42.42 0 0 1-.07.12v.1l-.12.16-.21.32-.09.13-.21.33-.15.27-.07.14-.07.15h.41l.28-.19.27-.13.28-.15.27-.15.28-.17.26-.16.09-.06.09-.06h.14l.38-.23.33-.19.28-.16.33-.28.12-.06h.12l.27.15v.07q.1.17.2.33l.26.34.15.17.19.19.23.19a2 2 0 0 0 .3.18 2 2 0 0 0 .43.18l.37.08h.62l.51-.1.53-.15a6.49 6.49 0 0 0 .79-.36l.56-.32.4-.27.27-.2.19-.15.14-.11.08-.06z" fill="#c2b59b" stroke="#c2b59b" stroke-linecap="round" stroke-linejoin="round" stroke-width=".36"/><path d="M98.15 6.52a.33.33 0 0 1 .2-.07.27.27 0 0 1 .21.1.25.25 0 0 1 .05.16.3.3 0 0 1 0 .13.31.31 0 0 1-.09.11l-.12.07-.4.24-.37.24-.63.39-.42.21-.53.23-.62.23c-.22.07-.47.14-.73.2a7.48 7.48 0 0 1-.75.13 6.86 6.86 0 0 1-.71 0 4.65 4.65 0 0 1-.66 0 2.41 2.41 0 0 1-.58-.14 1.47 1.47 0 0 1-.28-.14 1.07 1.07 0 0 1-.22-.2.68.68 0 0 1-.14-.27.61.61 0 0 1 0-.15 1 1 0 0 1 0-.14 1.8 1.8 0 0 1 .07-.42 1.83 1.83 0 0 1 .14-.35 2 2 0 0 1 .18-.27l.18-.2.16-.12.17-.11.17-.09h.38a.28.28 0 0 1 .13.17.27.27 0 0 1 0 .2.32.32 0 0 1-.17.13h-.34l-.18.21a.84.84 0 0 0-.14.13 1.26 1.26 0 0 0-.28.47 1.83 1.83 0 0 0-.06.37.3.3 0 0 0 0 .14.38.38 0 0 0 .11.13.88.88 0 0 0 .2.13l.25.09.3.07h.6a5.22 5.22 0 0 0 .65 0 6.82 6.82 0 0 0 .7-.12q.34-.08.64-.18l.6-.23.46-.2.4-.2q.34-.19.58-.35l.36-.25.23-.19.15-.15.06-.06z" fill="#c2b59b" stroke="#c2b59b" stroke-linecap="round" stroke-linejoin="round" stroke-width=".36"/><path d="M97.94 6.54h.29a.29.29 0 0 1 .23 0 .27.27 0 0 1 .12.18.28.28 0 0 1-.06.2.34.34 0 0 1-.17.12h-.14L98.1 7l-.17.06a1 1 0 0 0-.22.12l-.12.1a.43.43 0 0 0-.09.15v.06a.36.36 0 0 0 0 .06.65.65 0 0 0 0 .17.88.88 0 0 0 .07.18.53.53 0 0 0 .22.23l.19.11.21.08a3.83 3.83 0 0 0 1.1.16h1.29l.29-.07.42-.14c.16-.06.34-.13.55-.23l.56-.3.45-.28.36-.25.26-.19.29-.23.15-.12a.33.33 0 0 1 .2-.07h.12a.26.26 0 0 1 .09.07.28.28 0 0 1 .06.17.29.29 0 0 1 0 .13.3.3 0 0 1-.09.11h-.06l-.11.07h-.23l-.22.13-.27.17-.53.3q-.3.17-.71.35t-.67.27l-.49.16-.38.1-.3.08-.42.29h-1.14a3.19 3.19 0 0 1-.59-.14 3.69 3.69 0 0 1-.43-.18l-.17-.1-.16-.12-.15-.15a.88.88 0 0 1-.12-.2 1.36 1.36 0 0 1-.1-.27 1 1 0 0 1 0-.26.8.8 0 0 1 0-.16.78.78 0 0 1 .11-.28 1.2 1.2 0 0 1 .16-.2 1.58 1.58 0 0 1 .28-.21l.22-.12z" fill="#c2b59b" stroke="#c2b59b" stroke-linecap="round" stroke-linejoin="round" stroke-width=".36"/><path d="M103.75 6.85a1 1 0 0 1 .11-.19.65.65 0 0 1 .13-.14.38.38 0 0 1 .13-.07.17.17 0 0 1 .11 0 .24.24 0 0 1 .11.24 1 1 0 0 1-.09.37l-.07.14-.1.18-.19.39v.15l-.06.13-.07.14-.21.48-.26.59v.06l-.54 1.25q-.3.72-.67 1.68v.13l-.05.14q.23-.48.49-1t.54-1l.28-.47.28-.45.26-.39.22-.32.43-.55c.15-.18.3-.35.45-.51l.27-.27.31-.27.39-.29a3.42 3.42 0 0 1 .48-.27l.3-.13.33-.1a2.39 2.39 0 0 1 .52-.05h.46l.08.07v.08a.25.25 0 0 1 0 .07.39.39 0 0 1 0 .06.51.51 0 0 1-.12.27v.14l-.11.22-.11.18-.26.39-.3.41-.12.16h.47l.81-.18.7-.19q.64-.2 1.18-.42l.9-.37.66-.32.45-.24.12-.07.1-.05.13-.07h.07a1.11 1.11 0 0 1 .23-.1h.2a.22.22 0 0 1 .2.08.16.16 0 0 1 0 .12.42.42 0 0 1-.06.14.79.79 0 0 1-.12.15.86.86 0 0 1-.17.13l-.12.07-.2.1h-.06l-.32.15-.48.22-.85.36q-.5.21-1.22.44l-.8.24-.9.21-.51.09-.56.08h-.32a.85.85 0 0 1-.23 0 .13.13 0 0 1-.11-.07v-.16a1.91 1.91 0 0 1 .22-.29l.43-.46.19-.21.17-.23.14-.23.12-.21v-.19h-.17a1.87 1.87 0 0 0-.39 0l-.35.1-.31.14-.28.16a4.43 4.43 0 0 0-.46.36l-.36.34-.31.35-.24.29-.19.24-.22.32-.22.33-.21.33q-.22.36-.5.85t-.61 1.13l-.36.71-.3.62v.1l-.05.11-.05.11-.1.2-.09.19-.06.1-.07.1h-.22l.08-.7a1.35 1.35 0 0 1 .06-.25l.08-.24.16-.49.18-.52q.3-.82.56-1.45l.46-1.11V9.3l.09-.21.08-.2.09-.21.08-.19.08-.19.08-.18.06-.14v-.12l.08-.21.07-.18v-.13l.12-.27.1-.23v-.11z" fill="#c2b59b" stroke="#c2b59b" stroke-linecap="round" stroke-linejoin="round" stroke-width=".36"/><path d="M118.94 6.6a.17.17 0 0 1 0 .11.35.35 0 0 1-.06.12l-.11.11-.15.09h-.57l-.48.16-.74.21q-.47.12-1.13.24a12.49 12.49 0 0 1-1.49.17h-.69l-.06.16-.06.18.25.34.26.41.07.14.06.14v.11a.49.49 0 0 1 0 .25.39.39 0 0 1-.09.15.31.31 0 0 1-.16.09h-.3l-.12-.05-.09-.05-.1-.08-.18.22-.15-.16-.08-.12-.08-.15a.56.56 0 0 1-.05-.19.85.85 0 0 1 0-.14 1.92 1.92 0 0 1 0-.23c0-.07 0-.15.06-.21v-.15l-.06-.08-.06-.08-.2-.43h.84l.1-.21.1-.21v-.2l.06-.14v-.09l.05-.12.1-.21-.14.11-.12.09-.08.07-.07.05a.72.72 0 0 1-.19.1.52.52 0 0 1-.17 0 .21.21 0 0 1-.2-.1.16.16 0 0 1 0-.11.35.35 0 0 1 0-.13.68.68 0 0 1 .09-.13l.13-.12h.17l.21-.15.3-.23.32-.27.37-.35.39-.75q.21-.41.5-.91l.19-.33c.07-.11.13-.21.2-.3h.47a.27.27 0 0 1 .13.1l.06.12v.12a1.16 1.16 0 0 1 0 .17l-.05.17a4 4 0 0 1-.3.62q-.17.28-.34.52a7.1 7.1 0 0 1-.47.59l-.44.47-.15.3-.13.27q-.22.46-.36.8l-.25.63h.57c.47 0 .9-.09 1.27-.15s.68-.14.94-.2l.66-.19.48-.18.36-.14.23-.1h.16a.75.75 0 0 1 .3-.07.35.35 0 0 1 .15 0 .19.19 0 0 1 .09.09zm-5.5 2.86l-.08-.15-.07-.13a.3.3 0 0 0 0 .05v.06l.06.08a1.5 1.5 0 0 0 .24.25zm2.42-6.27z" fill="#c2b59b" stroke="#c2b59b" stroke-linecap="round" stroke-linejoin="round" stroke-width=".36"/><path d="M123.66 6.59a.22.22 0 0 1 0 .11.36.36 0 0 1 0 .11.46.46 0 0 1-.07.11l-.11.09-.11.06-.18.1-.32.2-.48.31-.69.45-.92.62-.6.42-.67.5-.69.54-.77.6v.28a4.88 4.88 0 0 1-.24.63 2.06 2.06 0 0 1-.32.5 1.48 1.48 0 0 1-.2.19 1 1 0 0 1-.23.13l-.24.07h-.45a.47.47 0 0 1-.16-.06.26.26 0 0 1-.11-.15.31.31 0 0 1 0-.16.62.62 0 0 1 0-.13v-.18l.15-.21.15-.18.31-.32.29-.22.25-.22.31-.24.05-.27v-.26q0-.23.06-.47v-.95l.05-.46c0-.14 0-.27.05-.38s.06-.3.09-.44a2.86 2.86 0 0 1 .09-.33 1.73 1.73 0 0 1 .09-.2l.07-.12a.49.49 0 0 1 .11-.11l.14-.07a.27.27 0 0 1 .18 0 .25.25 0 0 1 .11.11.2.2 0 0 1 0 .12.89.89 0 0 1 0 .12v.18l-.08.18a2.38 2.38 0 0 0-.09.3q0 .18-.1.48t-.11.75V9.8a.11.11 0 0 0 0 .07.75.75 0 0 0 0 .1h.06l.49-.36.4-.29.12-.09.12-.08.09-.07.09-.06.25-.18.1-.07.1-.08.15-.11.16-.11.11-.08.12-.08.76-.53.58-.4.46-.32.32-.23.16-.12.13-.09.15-.11.14-.09a.5.5 0 0 1 .27-.08.27.27 0 0 1 .06.25zm-6.59 5.33a2 2 0 0 0 .16-.27 2.57 2.57 0 0 0 .14-.33l-.23.19-.2.17-.25.24-.24.26a.76.76 0 0 0 .24 0 1 1 0 0 0 .25-.13.93.93 0 0 0 .13-.13zm1-2z" fill="#c2b59b" stroke="#c2b59b" stroke-linecap="round" stroke-linejoin="round" stroke-width=".36"/></svg>