<svg data-name="Layer 1" xmlns="http://www.w3.org/2000/svg" viewBox="0 0 16 16"><title>instagram</title><path d="M5.33 8A2.67 2.67 0 1 1 8 10.67 2.67 2.67 0 0 1 5.33 8M3.89 8A4.11 4.11 0 1 0 8 3.89 4.11 4.11 0 0 0 3.89 8m7.42-4.27a1 1 0 1 0 1-1 1 1 0 0 0-1 1M4.77 14.51a4.42 4.42 0 0 1-1.49-.28 2.49 2.49 0 0 1-.92-.6 2.47 2.47 0 0 1-.6-.92 4.42 4.42 0 0 1-.28-1.49V4.76a4.44 4.44 0 0 1 .28-1.49 2.49 2.49 0 0 1 .6-.92 2.47 2.47 0 0 1 .92-.6 4.42 4.42 0 0 1 1.49-.28h6.46a4.44 4.44 0 0 1 1.49.28 2.48 2.48 0 0 1 .92.6 2.48 2.48 0 0 1 .6.92 4.42 4.42 0 0 1 .28 1.49v6.46a4.44 4.44 0 0 1-.28 1.49 2.65 2.65 0 0 1-1.52 1.52 4.42 4.42 0 0 1-1.49.28H4.77M4.7 0a5.87 5.87 0 0 0-1.94.42 3.93 3.93 0 0 0-1.42.92 3.91 3.91 0 0 0-.92 1.42A5.87 5.87 0 0 0 0 4.7v6.6a5.87 5.87 0 0 0 .37 1.94 3.91 3.91 0 0 0 .92 1.42 3.92 3.92 0 0 0 1.42.92A5.87 5.87 0 0 0 4.7 16h6.6a5.87 5.87 0 0 0 1.94-.37 4.09 4.09 0 0 0 2.34-2.34A5.85 5.85 0 0 0 16 11.3V4.7a5.87 5.87 0 0 0-.37-1.94 3.93 3.93 0 0 0-.92-1.42 3.92 3.92 0 0 0-1.47-.92A5.86 5.86 0 0 0 11.3 0H4.7" fill="#f0f5fa" opacity=".6"/></svg>