<svg id="Layer_1" data-name="Layer 1" xmlns="http://www.w3.org/2000/svg" viewBox="0 0 125 15"><title>handmade</title><path d="M9.29,6.56a.15.15,0,0,1,0,.11.41.41,0,0,1,0,.14.68.68,0,0,1-.1.15A1,1,0,0,1,9,7.11l-.07,0H9l-.09.05-.19.11-.36.21H8.25L8,7.71l-.31.17-.36.19-.4.2-.29.12-.32.13L6,8.66l-.34.16L5.35,9l-.26.12a.7.7,0,0,1-.2,0,.11.11,0,0,1-.11-.06.3.3,0,0,1,0-.19,2,2,0,0,1,.16-.37V8.44l.14-.39.14-.4,0-.07,0-.07.14-.41.15-.44.05-.16.07-.2-.39.3-.43.31h0l-.54.35-.58.33h0l-.42.23L2.88,8l-.09,0-.09,0h0l-.22.11-.23.11h0l0,.08,0,.09v.08h0l-.07.12A.56.56,0,0,1,2,8.9l-.06,0L1.82,9h-.2l-.09,0-.06,0-.06,0-.05-.07h0a.26.26,0,0,1,0-.23.45.45,0,0,1,.06-.12l.08-.09.21-.15.22-.12h0q.12-.38.23-.76l.19-.7q.15-.63.27-1.18l.2-.94L2.89,4,3,3.6,3,3.24,3.09,3V2.86a.22.22,0,0,0,0,0,.89.89,0,0,1,.06-.2.74.74,0,0,1,.09-.16.38.38,0,0,1,.11-.1.16.16,0,0,1,.11,0,.22.22,0,0,1,.14.11.48.48,0,0,1,.05.24,1.19,1.19,0,0,1,0,.12.8.8,0,0,1,0,.12h0l0,.06,0,.07v.12h0l0,.14,0,.19h0l-.07.29-.09.38h0v.2h0l-.09.38-.11.46L3,5.72l-.13.54L2.69,7q-.1.39-.24.82h0l.26-.13L3,7.54l.42-.21.38-.21q.36-.2.66-.4T5,6.32q.33-.25.57-.46A5.51,5.51,0,0,0,6,5.43V5.28H6V5.23L6.13,5h0V4.92l.24-.7.27-.73.16-.4L7,2.68l.05-.11.05-.11,0,0,0-.07h0l0,0h0l0,0,0-.05,0,0,.07,0h0l.05,0h.14l.05,0,0,0h0l0,0,0,0v0l0,0v.06h0a0,0,0,0,1,0,0v.09s0,0,0,.07v.07s0,.06,0,.09a.6.6,0,0,1,0,.08.1.1,0,0,0,0,0v.05a4.89,4.89,0,0,1-.13.59q-.08.27-.16.49a4.09,4.09,0,0,1-.19.4l-.2.35a5.61,5.61,0,0,1-.36.49l-.38.44v.13l-.17.48L6,6.76l-.16.46-.17.5,0,.13,0,.13h0l0,.08,0,.08,0,.06,0,.06,0,.1,0,.1.55-.23L6.43,8l.76-.39.53-.31.35-.22.25-.17.1-.07.09-.07,0,0,.05,0h0l0,0,.05,0,.18-.1L9,6.5a.34.34,0,0,1,.14,0A.17.17,0,0,1,9.29,6.56Zm-7.59,2h0l-.1.13h0Z" fill="#c2b59b" stroke="#c2b59b" stroke-linecap="round" stroke-linejoin="round" stroke-width="0.36"/><path d="M8.85,6.53a.35.35,0,0,1,.22-.08l.11,0a.29.29,0,0,1,.1.07.25.25,0,0,1,0,.21A.38.38,0,0,1,9.2,7H9.15L9.08,7,9,7.14H9l-.19.17-.27.27,0,0h0l-.16.19L8.15,8h0L8,8.22a1.82,1.82,0,0,0-.14.3l.2-.11.22-.14.54-.36h0L9,7.8,9,7.74l0,0,0,0h.27l.07,0h0l0,0,.12.06L9.88,8l.52.26.23.09.25.09.28.07.36.05h.32l.16,0,.29-.07a2.07,2.07,0,0,0,.32-.12A5.44,5.44,0,0,0,13.26,8l.5-.34.4-.3.29-.25.28-.27.18-.18,0,0a.38.38,0,0,1,.11-.08l.13,0h.09l.08,0a.23.23,0,0,1,.08.19.32.32,0,0,1,0,.13.41.41,0,0,1-.09.12l0,0-.06.06-.11.1-.19.15-.3.24-.42.31-.27.18-.34.21-.39.22-.42.21a2.87,2.87,0,0,1-.44.16,2.53,2.53,0,0,1-.4.08H11.3l-.44-.07-.37-.09-.3-.1-.32-.12-.18-.08-.19-.1h0l-.1-.05-.1-.06h0l0,0-.54.32-.44.24-.2.09L7.83,9,7.74,9h-.1l-.12,0a.26.26,0,0,1-.09-.08.24.24,0,0,1,0-.11h0a.37.37,0,0,1,0-.1s0-.06,0-.1h0V8.51l0-.08h0a1.89,1.89,0,0,1,.15-.37l.16-.28.16-.23.15-.18.22-.27.17-.19,0,0,0-.05,0,0,.15-.15Zm-1.11,2h0Zm.08.07h0Z" fill="#c2b59b" stroke="#c2b59b" stroke-linecap="round" stroke-linejoin="round" stroke-width="0.36"/><path d="M25,6.58a.44.44,0,0,1,.13-.07l.13,0a.24.24,0,0,1,.2.1.21.21,0,0,1,0,.1.3.3,0,0,1,0,.12.48.48,0,0,1-.06.12.49.49,0,0,1-.09.1l0,0,0,0,0,0h0l-.13.07-.17.11h0l-.06,0-.28.18-.39.24-.31.18-.37.2-.44.21q-.25.11-.53.21l-.32.1-.36.1-.39.07-.42,0a3,3,0,0,1-.46,0,2.69,2.69,0,0,1-.49-.11,3,3,0,0,1-.5-.22,2.65,2.65,0,0,1-.46-.33,3,3,0,0,1-.42-.46q-.16-.22-.27-.41l-.08-.14L18.32,7,18,7.17l-.42.23-.44.27L16.58,8l-.05,0-.05,0-.17.11-.18.11-.48.27a4.53,4.53,0,0,1-.45.23L15,8.9,14.72,9,14.5,9h-.15l-.14,0h-.07l-.07,0a.36.36,0,0,1-.09-.1h0v0h0a.31.31,0,0,1,0-.09s0,0,0-.07V8.54a.76.76,0,0,1,0-.13l0-.1h0A2.46,2.46,0,0,1,14.13,8l.14-.26.12-.22.34-.58.15-.24a.47.47,0,0,1,.1-.11l.12-.07.12,0,.1,0h0a.19.19,0,0,1,.08.09.33.33,0,0,1,0,.13.4.4,0,0,1-.08.25h0l0,.05,0,.05-.12.16L15,7.56v0h0l0,0,0,0h0l-.09.13L14.7,8l-.15.27-.07.14-.06.15h0l.2,0,.21,0,.24-.09.27-.13.28-.15.27-.15.28-.17.26-.16.09-.06.09-.06,0,0,0,0,.07,0,.07,0h0l.38-.23.33-.19.28-.16.25-.14.12-.06.12,0h0l0,0,.27.15v.07h0v0q.1.17.2.33l.25.34h0l.15.17.19.19h0l.23.19a2.53,2.53,0,0,0,.72.36l.37.08.33,0h.29l.51-.1.53-.15a6.45,6.45,0,0,0,.79-.36l.56-.32h0l.4-.27.27-.2.19-.15.14-.11h0l.08-.06Z" fill="#c2b59b" stroke="#c2b59b" stroke-linecap="round" stroke-linejoin="round" stroke-width="0.36"/><path d="M32.11,6.59a.17.17,0,0,1,0,.11.36.36,0,0,1-.07.13.76.76,0,0,1-.13.13.82.82,0,0,1-.18.11l0,0,0,0h-.06l-.07,0-.1,0-.16.07-.23.1-.16.07-.19.08-.15.07-.16.07L30,7.8,29.63,8l-.12,0-.12.05-.15.06-.4.17-.45.19L28,8.64l-.41.15h-.14l-.19.06-.15,0h-.26l-.05,0a.26.26,0,0,1-.09-.08.3.3,0,0,1,0-.09h0a.54.54,0,0,1,0-.15,1.29,1.29,0,0,1,0-.14V8.41a5.44,5.44,0,0,1,.1-.58l.15-.63,0-.12,0-.09q-.29.35-.55.64t-.52.53c-.17.15-.33.29-.5.42a2.71,2.71,0,0,1-.54.32L24.68,9l-.16,0h-.19a.54.54,0,0,1-.19-.07h0L24,8.88,24,8.79a.48.48,0,0,1-.08-.21.64.64,0,0,1,0-.17.93.93,0,0,1,0-.15A2.34,2.34,0,0,1,24,8l.08-.17.09-.16.09-.14.16-.23.14-.18.19-.24.12-.14A1,1,0,0,1,25,6.63l.16-.09.14,0a.17.17,0,0,1,.11,0,.17.17,0,0,1,0,.11.39.39,0,0,1,0,.14.72.72,0,0,1-.07.16,1,1,0,0,1-.11.16l0,0,0,.05,0,0,0,0,0,0,0,0,0,0L25,7.47l-.12.15h0l-.14.2-.14.21h0l-.08.14a1.34,1.34,0,0,0-.07.16l0,.06a.24.24,0,0,0,0,.06v0h.08a.54.54,0,0,0,.25-.06h0l.24-.14.27-.19.27-.23.29-.27.3-.3L26.35,7l.44-.52.46-.59v0q.22-.71.49-1.51t.61-1.64q.21-.52.4-.92t.38-.74h0V1h0l.08-.14.09-.12h0l.07-.09.05-.06.07-.06.09,0h0l.08,0h.1l.11,0L30,.62a.71.71,0,0,1,.11.21,1,1,0,0,1,0,.21,1.41,1.41,0,0,1,0,.19,1.82,1.82,0,0,1,0,.18,2.86,2.86,0,0,1-.08.36c0,.13-.08.25-.13.38l-.17.41q-.1.23-.21.46l-.27.52c-.1.18-.21.38-.34.59l-.42.68q-.23.36-.52.77l-.06.09h0l-.14.2-.14.2,0,.09,0,.09,0,.11,0,.11h0l0,.09a.51.51,0,0,1,0,.1l-.14.47q-.06.22-.12.45l-.05.23,0,.23v0h0l0,.22a1.7,1.7,0,0,0,0,.23l.17,0,.19-.06.35-.12.32-.13.58-.24.5-.22.78-.36.54-.26.36-.18.25-.12.21-.1.21-.1.19-.07.18,0a.25.25,0,0,1,.24.11ZM28.4,4l-.07.17,0,.09,0,0v0l0,.06,0,.13q.39-.61.68-1.15t.48-.95q.1-.24.18-.49a4.43,4.43,0,0,0,.13-.47,1.49,1.49,0,0,0,0-.38s0-.07,0-.08,0,0,0,.06l-.15.26-.16.32-.16.35q-.16.35-.37.87Z" fill="#c2b59b" stroke="#c2b59b" stroke-linecap="round" stroke-linejoin="round" stroke-width="0.36"/><path d="M44.25,6.57a.25.25,0,0,1,0,.23A.52.52,0,0,1,44,7h0l0,0-.06,0h0l-.12.06-.22.11h0l0,0,0,0-.37.19-.53.27-.41.2-.48.22-.58.25q-.32.13-.66.23l-.23.05-.24,0-.26,0-.27-.08a1.54,1.54,0,0,1-.46-.33,2.1,2.1,0,0,1-.34-.46,2.14,2.14,0,0,1-.1-.21l-.1-.25-.46.37-.49.35q-.37.25-.66.4a4.53,4.53,0,0,1-.54.24L36,8.87l-.25,0h-.4l-.18,0h0a.89.89,0,0,1-.28-.18,1.25,1.25,0,0,1-.23-.28,1.63,1.63,0,0,1-.15-.33,2.62,2.62,0,0,1-.09-.38h0c0-.09,0-.18,0-.28s0-.21,0-.33h0l0,0,0,0-.15.09-.15.1h0l-.09.06-.09.06h0l-.05,0-1.13.68q-.52.3-1,.52l-.23.1-.25.09-.13,0H30.8l-.08,0h0l-.09-.06-.06-.08h0V8.71a.17.17,0,0,1,0-.05.54.54,0,0,1,0-.15l.06-.17.05-.13v0l0-.08h0l0-.08,0-.07,0,0,0,0h0V7.81l.25-.45L31.28,7l.07-.11.05-.09V6.78h0V6.74a.6.6,0,0,1,.23-.21.25.25,0,0,1,.24,0A.2.2,0,0,1,32,6.6a.3.3,0,0,1,0,.12.52.52,0,0,1,0,.14.75.75,0,0,1-.07.16h0l0,0,0,.06,0,0,0,0-.14.21-.23.36q-.13.22-.29.52v.12a5.1,5.1,0,0,0,.5-.21l.55-.29h0l.64-.35.72-.41,0,0,0,0h0L33.71,7,33.82,7l.16-.1.16-.1h0l.05,0,.05,0h0l.09,0,.06,0,.07-.07h0l0,0,0,0,.25.13,0,.12v0a.58.58,0,0,0,0,.07v.07a3.52,3.52,0,0,0,0,.54,3.11,3.11,0,0,0,.09.44,1.28,1.28,0,0,0,.14.32.63.63,0,0,0,.19.2l.12.05h.22l.1,0,.25-.07.21-.08.23-.11.23-.13q.25-.13.57-.35t.72-.51L38,7.14,38.16,7l.17-.14,0,0,0,0,.07-.07.13,0,.07,0,0,0,0,0v.07c.06,0,.1.08.1.13a.16.16,0,0,1,0,.12h0l0,.09,0,.11a2.76,2.76,0,0,0,.18.39,1.6,1.6,0,0,0,.2.29.86.86,0,0,0,.48.29l.2,0,.21,0,.21-.05a5.66,5.66,0,0,0,.56-.2l.46-.2h0l.41-.2.35-.18q.62-.33.91-.51l.18-.11.13-.09.06,0,.05,0,.1-.06.1-.05h0l0,0,0,0,.15-.07.15,0a.27.27,0,0,1,.23.12Zm-5.49.55v0h0Z" fill="#c2b59b" stroke="#c2b59b" stroke-linecap="round" stroke-linejoin="round" stroke-width="0.36"/><path d="M43.76,6.53A.35.35,0,0,1,44,6.45l.11,0a.29.29,0,0,1,.1.07.25.25,0,0,1,0,.21.38.38,0,0,1-.13.21h-.05L44,7l-.13.1h0l-.19.17-.27.27,0,0h0l-.16.19L43.07,8h0l-.15.24a1.82,1.82,0,0,0-.14.3L43,8.4l.22-.14.54-.36h0l.12-.09L44,7.74l0,0,0,0h.27l.07,0h0l0,0,.12.06.28.14.52.26.23.09.25.09.28.07.36.05h.32l.16,0,.29-.07a2.07,2.07,0,0,0,.32-.12A5.44,5.44,0,0,0,48.18,8l.5-.34.4-.3.29-.25.28-.27.18-.18,0,0A.38.38,0,0,1,50,6.54l.13,0h.09l.08,0a.23.23,0,0,1,.08.19.32.32,0,0,1,0,.13.41.41,0,0,1-.09.12l0,0-.06.06L50,7.2l-.19.15-.3.24-.42.31-.27.18-.34.21-.39.22-.42.21a2.87,2.87,0,0,1-.44.16,2.53,2.53,0,0,1-.4.08h-.64l-.44-.07-.37-.09-.3-.1-.32-.12-.18-.08-.19-.1h0l-.1-.05-.1-.06h0l0,0-.54.32-.44.24-.2.09L42.75,9l-.09,0h-.1l-.12,0a.26.26,0,0,1-.09-.08.24.24,0,0,1,0-.11h0a.37.37,0,0,1,0-.1s0-.06,0-.1h0V8.51l0-.08h0a1.89,1.89,0,0,1,.15-.37l.16-.28.16-.23L43,7.38l.22-.27.17-.19,0,0,0-.05,0,0,.15-.15Zm-1.11,2h0Zm.08.07h0Z" fill="#c2b59b" stroke="#c2b59b" stroke-linecap="round" stroke-linejoin="round" stroke-width="0.36"/><path d="M57,6.59a.17.17,0,0,1,0,.11.36.36,0,0,1-.07.13.76.76,0,0,1-.13.13.82.82,0,0,1-.18.11l0,0,0,0h-.06l-.07,0-.1,0-.16.07-.23.1-.16.07-.19.08-.15.07-.16.07-.35.15L54.47,8l-.12,0-.12.05-.15.06-.4.17-.45.19-.38.15-.41.15H52.3l-.19.06-.15,0h-.26l-.05,0a.26.26,0,0,1-.09-.08.3.3,0,0,1,0-.09h0a.54.54,0,0,1,0-.15,1.29,1.29,0,0,1,0-.14V8.41a5.44,5.44,0,0,1,.1-.58l.15-.63,0-.12,0-.09q-.29.35-.55.64t-.52.53c-.17.15-.33.29-.5.42a2.71,2.71,0,0,1-.54.32L49.52,9l-.16,0h-.19A.54.54,0,0,1,49,8.94h0l-.1-.06-.09-.09a.48.48,0,0,1-.08-.21.64.64,0,0,1,0-.17.93.93,0,0,1,0-.15A2.34,2.34,0,0,1,48.82,8l.08-.17L49,7.7l.09-.14.16-.23.14-.18.19-.24.12-.14a1,1,0,0,1,.15-.14L50,6.54l.14,0a.17.17,0,0,1,.11,0,.17.17,0,0,1,0,.11.39.39,0,0,1,0,.14.72.72,0,0,1-.07.16,1,1,0,0,1-.11.16l0,0,0,.05,0,0,0,0,0,0,0,0,0,0-.09.11-.12.15h0l-.14.2-.14.21h0l-.08.14a1.34,1.34,0,0,0-.07.16l0,.06a.24.24,0,0,0,0,.06v0h.08a.54.54,0,0,0,.25-.06h0l.24-.14L50,8.13l.27-.23.29-.27.3-.3L51.2,7l.44-.52.46-.59v0q.22-.71.49-1.51t.61-1.64q.21-.52.4-.92T54,1.07h0V1h0l.08-.14.09-.12h0l.07-.09.05-.06.07-.06.09,0h0l.08,0h.1l.11,0,.07.07a.71.71,0,0,1,.11.21A1,1,0,0,1,55,1a1.41,1.41,0,0,1,0,.19,1.82,1.82,0,0,1,0,.18,2.86,2.86,0,0,1-.08.36c0,.13-.08.25-.13.38l-.17.41q-.1.23-.21.46l-.27.52c-.1.18-.21.38-.34.59l-.42.68q-.23.36-.52.77l-.06.09h0l-.14.2-.14.2,0,.09,0,.09,0,.11,0,.11h0l0,.09a.51.51,0,0,1,0,.1l-.14.47q-.06.22-.12.45L52,7.81,52,8v0h0l0,.22a1.7,1.7,0,0,0,0,.23l.17,0,.19-.06.35-.12.32-.13.58-.24.5-.22.78-.36.54-.26.36-.18.25-.12.21-.1.21-.1.19-.07.18,0a.25.25,0,0,1,.24.11ZM53.24,4l-.07.17,0,.09,0,0v0l0,.06,0,.13q.39-.61.68-1.15t.48-.95q.1-.24.18-.49a4.43,4.43,0,0,0,.13-.47,1.49,1.49,0,0,0,0-.38s0-.07,0-.08,0,0,0,.06l-.15.26-.16.32-.16.35q-.16.35-.37.87Z" fill="#c2b59b" stroke="#c2b59b" stroke-linecap="round" stroke-linejoin="round" stroke-width="0.36"/><path d="M56.24,6.54l.11,0,.09,0,.09,0h0a.29.29,0,0,1,.23,0,.27.27,0,0,1,.12.18.28.28,0,0,1-.06.2.34.34,0,0,1-.17.12h-.14l-.13,0h-.05l-.17.06a1,1,0,0,0-.22.12h0l-.12.1a.43.43,0,0,0-.09.15v.06a.32.32,0,0,0,0,.06.67.67,0,0,0,0,.17.88.88,0,0,0,.07.18.53.53,0,0,0,.22.23l.19.11.21.08a3.84,3.84,0,0,0,1.1.16h.32l.26,0h0l.22,0,.22,0,.26,0,.29-.07h0l.42-.14c.16-.06.34-.13.55-.23h0l.56-.3.45-.28.36-.25.26-.19.29-.23.15-.12,0,0a.33.33,0,0,1,.2-.07l.12,0a.26.26,0,0,1,.09.07.28.28,0,0,1,.06.17.29.29,0,0,1,0,.13.3.3,0,0,1-.09.11h0l-.06,0-.11.07,0,0,0,0-.06,0-.07,0-.05,0-.05,0,0,0,0,0h0l-.22.13-.27.17L61,8q-.3.17-.71.35t-.67.27l-.49.16-.38.1-.3.08-.26,0L57.9,9h-.54l-.3,0a3.2,3.2,0,0,1-.59-.14A3.71,3.71,0,0,1,56,8.66l-.17-.1-.16-.12-.15-.15a.86.86,0,0,1-.12-.2h0a1.39,1.39,0,0,1-.1-.27,1,1,0,0,1,0-.26.84.84,0,0,1,0-.16.77.77,0,0,1,.11-.28,1.2,1.2,0,0,1,.16-.2,1.58,1.58,0,0,1,.28-.21l.22-.12h0Z" fill="#c2b59b" stroke="#c2b59b" stroke-linecap="round" stroke-linejoin="round" stroke-width="0.36"/><path d="M76.23,6.52a.33.33,0,0,1,.2-.07.27.27,0,0,1,.21.1.25.25,0,0,1,.05.16.3.3,0,0,1,0,.13.31.31,0,0,1-.09.11l0,0h0l0,0-.12.07-.23.15h0l0,0h0l0,0,0,0-.37.24-.55.32h0l-.42.21-.53.23-.62.23c-.22.07-.47.14-.73.2A7.48,7.48,0,0,1,72,8.9a6.86,6.86,0,0,1-.71,0,4.65,4.65,0,0,1-.66,0,2.41,2.41,0,0,1-.57-.15h0a1.47,1.47,0,0,1-.28-.14,1.07,1.07,0,0,1-.22-.2.68.68,0,0,1-.14-.27h0a.61.61,0,0,1,0-.15,1,1,0,0,1,0-.14,1.8,1.8,0,0,1,.07-.42,1.83,1.83,0,0,1,.14-.35,2,2,0,0,1,.18-.27l.18-.2.16-.12.17-.11.17-.09.1,0,.05,0h.12l.11,0a.28.28,0,0,1,.13.17.27.27,0,0,1,0,.2.32.32,0,0,1-.17.13h-.17l-.08,0-.09,0h0L70.33,7a.84.84,0,0,0-.14.13,1.26,1.26,0,0,0-.28.47,1.83,1.83,0,0,0-.06.37.3.3,0,0,0,0,.14.38.38,0,0,0,.11.13.88.88,0,0,0,.2.13l.25.09.3.07.34,0h.26a5.22,5.22,0,0,0,.65,0,6.82,6.82,0,0,0,.7-.12q.34-.08.64-.18L73.9,8l.46-.2.4-.2h0q.34-.19.58-.35L75.7,7l.23-.19.15-.13,0,0,0,0,.06-.06Z" fill="#c2b59b" stroke="#c2b59b" stroke-linecap="round" stroke-linejoin="round" stroke-width="0.36"/><path d="M81.93,6.49a.32.32,0,0,1,.23,0,.27.27,0,0,1,.16.14.27.27,0,0,1,0,.21.3.3,0,0,1-.16.16h-.08L82,7l-.13,0-.23.08-.33.11-.48.15-.65.18-.1,0-.11,0-.35.09-.39.09-.59.09A4.71,4.71,0,0,1,78,8H77.6l-.29,0h-.13l0,0,0,0V8l0,0,0,0-.17.2-.2.21h0l-.18.16-.23.16h0a1.28,1.28,0,0,1-.32.15h0l-.09,0h-.25a.39.39,0,0,1-.15,0,.55.55,0,0,1-.22-.18.83.83,0,0,1-.11-.24h0a1,1,0,0,1,0-.2c0-.06,0-.12,0-.18s0-.12,0-.18,0-.11,0-.15l0-.14a1.5,1.5,0,0,1,0-.15h0a1.52,1.52,0,0,1,.1-.27A1.57,1.57,0,0,1,75.41,7l.16-.17.15-.12h0A1.46,1.46,0,0,1,76,6.58l.2-.08.14,0h.06a.29.29,0,0,1,.13,0l.11.05a.28.28,0,0,1,.08.09.23.23,0,0,1,0,.11.28.28,0,0,1-.07.19.31.31,0,0,1-.18.1h-.15l-.11,0-.13,0h0l-.1.05-.11.08-.11.11a.7.7,0,0,0-.1.17.91.91,0,0,0-.08.23,2.87,2.87,0,0,0,0,.29,1.06,1.06,0,0,0,0,.15.83.83,0,0,0,0,.16.44.44,0,0,0,0,.12.16.16,0,0,0,.07.08h.15l.09,0L76,8.46l.12-.07.19-.15.17-.17.15-.17a.45.45,0,0,0,.08-.12l.08-.15a.49.49,0,0,1,.12-.15.41.41,0,0,1,.19-.08.57.57,0,0,1,.29,0h1l.56,0,.43-.06.36-.07.34-.08.26-.08.26-.09L80.87,7l.19-.07.25-.1.18-.09h0l0,0,.12-.06.09,0h0l.07,0,.08,0Z" fill="#c2b59b" stroke="#c2b59b" stroke-linecap="round" stroke-linejoin="round" stroke-width="0.36"/><path d="M91.91,6.58,92,6.51l.13,0a.24.24,0,0,1,.2.1.21.21,0,0,1,0,.1.29.29,0,0,1,0,.12.47.47,0,0,1-.06.12.5.5,0,0,1-.09.1l0,0,0,0,0,0h0L92,7.16l-.17.11h0l-.06,0-.28.18-.39.24-.31.18-.37.2L90,8.33q-.25.11-.53.21l-.32.1-.36.1-.39.07-.42,0a3,3,0,0,1-.46,0A2.7,2.7,0,0,1,87,8.69a3,3,0,0,1-.5-.22A2.63,2.63,0,0,1,86,8.14a3,3,0,0,1-.42-.46q-.16-.22-.27-.41l-.08-.14L85.22,7l-.34.17-.42.23L84,7.68,83.48,8l-.05,0,0,0-.17.11L83,8.3l-.48.27a4.53,4.53,0,0,1-.45.23l-.24.09L81.62,9,81.4,9h-.15l-.14,0H81l-.07,0a.35.35,0,0,1-.09-.1h0v0h0a.32.32,0,0,1,0-.09s0,0,0-.07V8.54a.76.76,0,0,1,0-.13l0-.1h0A2.46,2.46,0,0,1,81,8l.14-.26.12-.22.34-.58.15-.24a.49.49,0,0,1,.1-.11L82,6.5l.12,0,.1,0h0a.19.19,0,0,1,.08.09.32.32,0,0,1,0,.13.44.44,0,0,1,0,.12.42.42,0,0,1-.07.12h0l0,.05,0,.05-.12.16-.21.32v0h0l0,0,0,0h0l-.09.13L81.6,8l-.15.27-.07.14-.07.15h0l.2,0,.21,0L82,8.37l.27-.13.28-.15.27-.15.28-.17.26-.16.09-.06.09-.06,0,0,0,0,.07,0,.07,0h0l.38-.23.33-.19.28-.16L85,6.63l.12-.06.12,0h0l0,0,.27.15v.07h0v0q.1.17.2.33l.26.34h0l.15.17.19.19h0l.23.19a2,2,0,0,0,.3.18,2,2,0,0,0,.43.18l.37.08.33,0h.29l.51-.1.53-.15a6.49,6.49,0,0,0,.79-.36l.56-.32h0l.4-.27.27-.2.19-.15.14-.11h0l.08-.06Z" fill="#c2b59b" stroke="#c2b59b" stroke-linecap="round" stroke-linejoin="round" stroke-width="0.36"/><path d="M98.15,6.52a.33.33,0,0,1,.2-.07.27.27,0,0,1,.21.1.25.25,0,0,1,.05.16.3.3,0,0,1,0,.13.31.31,0,0,1-.09.11l0,0h0l0,0-.12.07L98,7.26h0l0,0h0l0,0,0,0-.37.24L97,7.89h0l-.42.21-.53.23-.62.23c-.22.07-.47.14-.73.2a7.48,7.48,0,0,1-.75.13,6.86,6.86,0,0,1-.71,0,4.65,4.65,0,0,1-.66,0A2.41,2.41,0,0,1,92,8.75h0a1.47,1.47,0,0,1-.28-.14,1.07,1.07,0,0,1-.22-.2.68.68,0,0,1-.14-.27h0a.61.61,0,0,1,0-.15,1,1,0,0,1,0-.14,1.8,1.8,0,0,1,.07-.42,1.83,1.83,0,0,1,.14-.35,2,2,0,0,1,.18-.27l.18-.2.16-.12.17-.11.17-.09.1,0,.05,0h.12l.11,0a.28.28,0,0,1,.13.17.27.27,0,0,1,0,.2.32.32,0,0,1-.17.13h-.17l-.08,0-.09,0h0L92.25,7a.84.84,0,0,0-.14.13,1.26,1.26,0,0,0-.28.47,1.83,1.83,0,0,0-.06.37.3.3,0,0,0,0,.14.38.38,0,0,0,.11.13.88.88,0,0,0,.2.13l.25.09.3.07.34,0h.26a5.22,5.22,0,0,0,.65,0,6.82,6.82,0,0,0,.7-.12q.34-.08.64-.18L95.82,8l.46-.2.4-.2h0q.34-.19.58-.35L97.62,7l.23-.19L98,6.66l0,0,0,0,.06-.06Z" fill="#c2b59b" stroke="#c2b59b" stroke-linecap="round" stroke-linejoin="round" stroke-width="0.36"/><path d="M97.94,6.54l.11,0,.09,0,.09,0h0a.29.29,0,0,1,.23,0,.27.27,0,0,1,.12.18.28.28,0,0,1-.06.2.34.34,0,0,1-.17.12h-.14L98.1,7h0l-.17.06a1,1,0,0,0-.22.12h0l-.12.1a.43.43,0,0,0-.09.15v.06a.36.36,0,0,0,0,.06.65.65,0,0,0,0,.17.88.88,0,0,0,.07.18.53.53,0,0,0,.22.23l.19.11.21.08a3.83,3.83,0,0,0,1.1.16h.32l.26,0h0l.22,0,.22,0,.27,0,.29-.07h0l.42-.14c.16-.06.34-.13.55-.23h0l.56-.3.45-.28.36-.25.26-.19.29-.23.15-.12,0,0a.33.33,0,0,1,.2-.07l.12,0a.26.26,0,0,1,.09.07.28.28,0,0,1,.06.17.29.29,0,0,1,0,.13.3.3,0,0,1-.09.11h0l-.06,0-.11.07,0,0,0,0-.06,0-.07,0-.05,0-.05,0,0,0,0,0h0l-.22.13-.27.17-.53.3q-.3.17-.71.35t-.67.27l-.49.16-.38.1-.3.08L99.9,9,99.6,9h-.54l-.3,0a3.19,3.19,0,0,1-.59-.14,3.69,3.69,0,0,1-.43-.18l-.17-.1-.16-.12-.15-.15a.88.88,0,0,1-.12-.2h0a1.36,1.36,0,0,1-.1-.27,1,1,0,0,1,0-.26.8.8,0,0,1,0-.16.78.78,0,0,1,.11-.28,1.2,1.2,0,0,1,.16-.2,1.58,1.58,0,0,1,.28-.21l.22-.12h0Z" fill="#c2b59b" stroke="#c2b59b" stroke-linecap="round" stroke-linejoin="round" stroke-width="0.36"/><path d="M103.75,6.85a1,1,0,0,1,.11-.19.65.65,0,0,1,.13-.14.38.38,0,0,1,.13-.07.17.17,0,0,1,.11,0,.24.24,0,0,1,.11.24,1,1,0,0,1-.09.37h0l-.07.14-.1.18-.19.39,0,.07,0,.08-.06.13-.07.14h0l-.21.48-.26.59h0v.06h0l0,0,0,0-.54,1.25q-.3.72-.67,1.68l0,.13-.05.14q.23-.48.49-1t.54-1l.28-.47.28-.45.26-.39.22-.32.43-.55c.15-.18.3-.35.45-.51l.27-.27.31-.27h0l.39-.29a3.42,3.42,0,0,1,.48-.27l.3-.13.33-.1a2.39,2.39,0,0,1,.52-.05h.37l.09,0h0l.08.07,0,.08h0a.25.25,0,0,1,0,.07.39.39,0,0,1,0,.06A.51.51,0,0,1,108,7l0,.14h0s0,0,0,0l-.11.22-.11.18-.26.39-.3.41-.12.16,0,0,0,0,.24,0,.23,0,.81-.18.7-.19q.64-.2,1.18-.42l.9-.37.66-.32.45-.24h0l.12-.07.1-.05.13-.07.07,0a1.11,1.11,0,0,1,.23-.1l.2,0a.22.22,0,0,1,.2.08.16.16,0,0,1,0,.12.42.42,0,0,1-.06.14.79.79,0,0,1-.12.15.86.86,0,0,1-.17.13l-.12.07-.2.1-.06,0h0l-.32.15-.48.22-.85.36q-.5.21-1.22.44l-.8.24-.9.21-.51.09-.56.08-.32,0a.85.85,0,0,1-.23,0,.13.13,0,0,1-.11-.07s0-.09,0-.16a1.91,1.91,0,0,1,.22-.29l.43-.46.19-.21.17-.23.14-.23.12-.21h0v0l0-.06,0-.06,0-.07,0,0,0,0h-.17a1.87,1.87,0,0,0-.39,0l-.35.1-.31.14-.28.16a4.43,4.43,0,0,0-.46.36l-.36.34h0l-.31.35-.24.29L104.5,9l-.22.32-.22.33-.21.33q-.22.36-.5.85t-.61,1.13l-.36.71-.3.62,0,.1,0,0,0,0-.05.11-.05.11-.1.2-.09.19v0l0,0-.06.1-.07.1h0l0,0,0,0,0,0,0,0-.05,0h-.08l-.09,0,0,0,0,0,0,0,0,0,.08-.7a1.35,1.35,0,0,1,.06-.25l.08-.24.16-.49.18-.52q.3-.82.56-1.45l.46-1.11h0l0-.07,0-.07.09-.21.08-.2.09-.21.08-.19h0l.08-.19.08-.18.06-.14,0-.12.08-.21.07-.18,0-.07,0-.06.12-.27.1-.23,0-.11Z" fill="#c2b59b" stroke="#c2b59b" stroke-linecap="round" stroke-linejoin="round" stroke-width="0.36"/><path d="M118.94,6.6a.17.17,0,0,1,0,.11.35.35,0,0,1-.06.12l-.11.11-.15.09h0l-.07,0-.11,0-.09,0-.13,0-.08,0-.09,0h0l-.48.16-.74.21q-.47.12-1.13.24a12.49,12.49,0,0,1-1.49.17h-.69l-.06.16-.06.18.25.34.26.41,0,0,0,0,.07.14.06.14a0,0,0,0,0,0,0l0,.11a.49.49,0,0,1,0,.25.39.39,0,0,1-.09.15.31.31,0,0,1-.16.09h-.14l-.16,0-.12-.05-.09-.05-.1-.08L113,9.82l-.15-.16-.08-.12-.08-.15a.56.56,0,0,1-.05-.19.85.85,0,0,1,0-.14h0a1.92,1.92,0,0,1,0-.23c0-.07,0-.15.06-.21h0V8.47l0,0,0,0h0l-.06-.08h0v0h0l-.06-.08,0,0,0,0,0,0,0,0,0,0-.2-.43.84,0,.1-.21.1-.21,0-.1,0-.1h0l0,0,.06-.14,0-.09.05-.12.1-.21-.14.11-.12.09-.08.07-.07.05,0,0,0,0,0,0h0a.72.72,0,0,1-.19.1.52.52,0,0,1-.17,0,.21.21,0,0,1-.2-.1h0a.16.16,0,0,1,0-.11.35.35,0,0,1,0-.13.68.68,0,0,1,.09-.13l.13-.12.05,0,0,0,.05,0,.07,0,0,0,0,0h0l.21-.15.3-.23.32-.27.37-.35.39-.75q.21-.41.5-.91v0l0,0,.19-.33c.07-.11.13-.21.2-.3l0,0,0,0,0,0,0,0,0,0h0l0,0h0l.06,0H116a.27.27,0,0,1,.13.1l.06.12v0a.16.16,0,0,1,0,0v0s0,0,0,.07v.05a1.16,1.16,0,0,1,0,.17l-.05.17v0a4,4,0,0,1-.3.62q-.17.28-.34.52a7.1,7.1,0,0,1-.47.59l-.44.47-.15.3-.13.27h0q-.22.46-.36.8l-.25.63h.27l.3,0c.47,0,.9-.09,1.27-.15s.68-.14.94-.2l.66-.19.48-.18.36-.14.23-.1,0,0,0,0,0,0,.05,0h0l.06,0,.05,0h0a.75.75,0,0,1,.3-.07.35.35,0,0,1,.15,0,.19.19,0,0,1,.09.09Zm-5.5,2.86-.08-.15-.07-.13h0l0,0,0,0,0,0,0,0a.24.24,0,0,0,0,0v0a.3.3,0,0,0,0,.05.1.1,0,0,1,0,0l0,.06.06.08a1.5,1.5,0,0,0,.24.25v0l0,0,0,0Zm2.42-6.27h0Z" fill="#c2b59b" stroke="#c2b59b" stroke-linecap="round" stroke-linejoin="round" stroke-width="0.36"/><path d="M123.66,6.59a.22.22,0,0,1,0,.11.36.36,0,0,1,0,.11.46.46,0,0,1-.07.11l-.11.09,0,0,0,0h0l-.11.06-.18.1-.32.2-.48.31-.69.45-.92.62-.6.42-.67.5-.69.54-.77.6,0,.14,0,.14a4.88,4.88,0,0,1-.24.63,2.06,2.06,0,0,1-.32.5,1.48,1.48,0,0,1-.2.19,1,1,0,0,1-.23.13l-.24.07-.23,0h-.22a.47.47,0,0,1-.16-.06.26.26,0,0,1-.11-.15h0a.31.31,0,0,1,0-.16.62.62,0,0,1,0-.13l0-.1,0-.08.15-.21.15-.18h0l0,0,0,0,.31-.32L117,11l.25-.22.31-.24.05-.27,0-.26q0-.23.06-.47c0-.16,0-.3,0-.43V8.83l0-.12s0-.08,0-.12l.05-.46c0-.14,0-.27.05-.38s.06-.3.09-.44a2.86,2.86,0,0,1,.09-.33,1.73,1.73,0,0,1,.09-.2l.07-.12a.49.49,0,0,1,.11-.11l.14-.07a.27.27,0,0,1,.18,0,.25.25,0,0,1,.11.11.2.2,0,0,1,0,.12.89.89,0,0,1,0,.12v0l0,.05,0,.06h0l0,0,0,.07-.08.18a2.38,2.38,0,0,0-.09.3q0,.18-.1.48t-.11.75c0,.09,0,.18,0,.28l0,.14,0,.15,0,.22c0,.08,0,.15,0,.23v.06a0,0,0,0,0,0,0v0a.11.11,0,0,0,0,.07.75.75,0,0,0,0,.1l.06,0h0l.49-.36.4-.29.12-.09.12-.08.09-.07.09-.06.25-.18.1-.07.1-.08.15-.11.16-.11h0l.11-.08.12-.08h0l.76-.53.58-.4.46-.32.32-.23.16-.12.13-.09h0l.15-.11.14-.09a.5.5,0,0,1,.27-.08A.27.27,0,0,1,123.66,6.59Zm-6.59,5.33a2,2,0,0,0,.16-.27,2.57,2.57,0,0,0,.14-.33l-.23.19-.2.17,0,0h0l-.25.24-.24.26h0l0,0,0,0a.76.76,0,0,0,.24,0,1,1,0,0,0,.25-.13A.93.93,0,0,0,117.07,11.92Zm1-2h0Z" fill="#c2b59b" stroke="#c2b59b" stroke-linecap="round" stroke-linejoin="round" stroke-width="0.36"/></svg>