<svg id="Layer_1" data-name="Layer 1" xmlns="http://www.w3.org/2000/svg" viewBox="0 0 24 24"><title>instagram</title><path d="M8,12a4,4,0,1,1,4,4,4,4,0,0,1-4-4M5.89,12A6.11,6.11,0,1,0,12,5.89,6.11,6.11,0,0,0,5.89,12m11-6.35a1.43,1.43,0,1,0,1.43-1.43,1.43,1.43,0,0,0-1.43,1.43m-9.73,16A6.57,6.57,0,0,1,5,21.28a3.7,3.7,0,0,1-1.37-.89A3.68,3.68,0,0,1,2.72,19a6.57,6.57,0,0,1-.41-2.21c-.06-1.25-.07-1.63-.07-4.81s0-3.55.07-4.81A6.61,6.61,0,0,1,2.72,5a3.7,3.7,0,0,1,.89-1.37A3.67,3.67,0,0,1,5,2.72a6.57,6.57,0,0,1,2.21-.41c1.25-.06,1.63-.07,4.81-.07s3.55,0,4.81.07A6.61,6.61,0,0,1,19,2.72a3.69,3.69,0,0,1,1.37.89A3.69,3.69,0,0,1,21.28,5a6.57,6.57,0,0,1,.41,2.21c.06,1.26.07,1.63.07,4.81s0,3.55-.07,4.81A6.6,6.6,0,0,1,21.28,19,3.94,3.94,0,0,1,19,21.28a6.57,6.57,0,0,1-2.21.41c-1.25.06-1.63.07-4.81.07s-3.55,0-4.81-.07M7.09.17A8.73,8.73,0,0,0,4.2.72,5.84,5.84,0,0,0,2.1,2.1,5.82,5.82,0,0,0,.72,4.2,8.73,8.73,0,0,0,.17,7.09C.11,8.36.1,8.77.1,12s0,3.64.07,4.91A8.73,8.73,0,0,0,.72,19.8,5.82,5.82,0,0,0,2.1,21.9,5.84,5.84,0,0,0,4.2,23.28a8.74,8.74,0,0,0,2.89.55c1.27.06,1.67.07,4.91.07s3.64,0,4.91-.07a8.73,8.73,0,0,0,2.89-.55,6.09,6.09,0,0,0,3.48-3.48,8.71,8.71,0,0,0,.55-2.89c.06-1.27.07-1.67.07-4.91s0-3.64-.07-4.91a8.73,8.73,0,0,0-.55-2.89A5.85,5.85,0,0,0,21.91,2.1,5.84,5.84,0,0,0,19.8.72,8.72,8.72,0,0,0,16.91.17C15.64.11,15.23.1,12,.1S8.36.11,7.09.17"/></svg>